<?xml version="1.0" encoding="utf-8"?>
<!DOCTYPE svg PUBLIC "-//W3C//DTD SVG 1.1//EN" "http://www.w3.org/Graphics/SVG/1.1/DTD/svg11.dtd">
<svg version="1.1" id="Capa_1" xmlns="http://www.w3.org/2000/svg" xmlns:xlink="http://www.w3.org/1999/xlink" x="0px" y="0px" width="269px" height="63px" viewBox="0 0 269 63" enable-background="new 0 0 269 63" xml:space="preserve">
<path fill="#004D92" d="M60.843,10.892c0,0-1.577,0.88-1.857,2.976c-0.217,1.026-9.574,45.108-9.574,45.108l-0.027,0.133 c-0.431,1.922-2.146,3.361-4.2,3.361L27.078,62.44H15.54c-2.055,0-3.77-1.438-4.201-3.36l-0.028-0.135 c0,0-9.358-44.082-9.571-45.104C1.459,11.741,0,10.882,0,10.882l8.875,1.035l0.134,0.022c0.975,0.22,1.743,0.995,1.944,1.976 l0.005,0.013l7.659,37.496c0.461,1.482,0.641,2.559,4.307,2.559H33.49c0,0,3.634,0.027,4.154,0.027c3.666,0,3.845-1.075,4.307-2.559 l7.657-37.493l0.002-0.012c0.204-0.984,0.969-1.756,1.947-1.979l0.134-0.022L60.843,10.892z M54.698,62.322h10.313l2.676-14.277 c0.197-1.04,0.479-1.907,0.856-2.602c0.372-0.696,0.8-1.225,1.286-1.59c0.485-0.364,0.976-0.625,1.475-0.781 c0.496-0.157,0.989-0.234,1.475-0.234c1.389,0,2.218,0.436,2.492,1.301c0.271,0.869,0.238,2.21-0.102,4.014l-2.658,14.17h10.317 l3.477-18.549c0.554-2.949,0.083-5.215-1.409-6.798c-1.492-1.577-3.54-2.367-6.146-2.367c-3.924,0-7.115,1.371-9.574,4.114h-0.106 l0.646-3.438h-9.948L54.698,62.322z M88.661,62.322h10.314l5.071-27.038H93.731L88.661,62.322z M136.601,35.284H126.08 l-7.357,16.459h-0.104l-1.132-16.459h-10.888l3.787,27.038h12.19L136.601,35.284z M164.416,51.119 c1.011-5.38,0.527-9.48-1.444-12.292c-1.97-2.813-5.582-4.219-10.823-4.219c-2.086,0-4.081,0.361-5.988,1.093 c-1.907,0.729-3.62,1.754-5.133,3.073c-1.52,1.321-2.773,2.849-3.778,4.584c-1.006,1.739-1.687,3.576-2.05,5.521 c-0.415,2.224-0.415,4.213,0.003,5.966c0.417,1.755,1.199,3.239,2.338,4.454c1.145,1.219,2.587,2.137,4.33,2.76 c1.737,0.625,3.687,0.938,5.837,0.938c3.231,0,6.239-0.72,9.029-2.159c2.787-1.443,4.946-3.571,6.481-6.382h-9.636 c-0.497,0.622-1.179,1.102-2.039,1.43c-0.86,0.332-1.742,0.493-2.645,0.493c-1.561,0-2.708-0.474-3.43-1.432 c-0.725-0.954-1.007-2.23-0.846-3.829H164.416z M145.682,45.755c1.055-3.022,3.107-4.53,6.165-4.53c1.317,0,2.322,0.433,3.009,1.301 c0.688,0.865,0.911,1.942,0.673,3.229H145.682z M166.641,62.322h10.314l2.002-10.68c0.527-2.813,1.436-4.879,2.728-6.199 c1.289-1.319,2.976-1.979,5.057-1.979c0.939,0,1.678,0.05,2.212,0.153c0.532,0.105,1.112,0.277,1.728,0.521l1.709-9.116 c-0.991-0.274-1.97-0.414-2.946-0.414c-1.804,0-3.382,0.409-4.734,1.223c-1.35,0.817-2.62,2.074-3.81,3.774h-0.1l0.808-4.321h-9.896 L166.641,62.322z M218.366,43.151c0.238-1.633,0.077-3.017-0.496-4.143c-0.57-1.128-1.43-2.015-2.573-2.655 c-1.15-0.644-2.439-1.095-3.862-1.357c-1.43-0.259-2.959-0.39-4.59-0.39c-1.461,0-2.964,0.14-4.508,0.416 c-1.543,0.278-3.006,0.739-4.373,1.381c-1.37,0.646-2.552,1.528-3.545,2.658c-0.993,1.128-1.646,2.509-1.95,4.14 c-0.435,2.325,0.078,4.159,1.548,5.498c1.472,1.336,4.104,2.336,7.903,2.993c2.319,0.418,3.794,0.801,4.421,1.148 c0.629,0.348,0.869,0.919,0.719,1.72c-0.13,0.694-0.603,1.215-1.41,1.564c-0.812,0.343-1.635,0.519-2.466,0.519 c-1.255,0-2.123-0.262-2.618-0.78c-0.632-0.695-0.9-1.494-0.8-2.399h-9.847c-0.28,1.669-0.141,3.12,0.409,4.354 c0.549,1.229,1.396,2.23,2.539,2.992c1.14,0.766,2.468,1.32,3.985,1.668c1.515,0.347,3.104,0.522,4.772,0.522 c1.772,0,3.491-0.156,5.163-0.473c1.677-0.311,3.23-0.822,4.666-1.535c1.437-0.712,2.666-1.7,3.685-2.97 c1.015-1.266,1.697-2.789,2.027-4.559c0.381-2.046,0.105-3.663-0.839-4.846c-0.941-1.178-2.346-2.081-4.206-2.707 c-1.139-0.417-2.883-0.835-5.234-1.248c-1.811-0.349-2.957-0.628-3.437-0.835c-0.314-0.173-0.565-0.365-0.756-0.575 c-0.185-0.207-0.245-0.484-0.184-0.832c0.151-0.8,0.55-1.345,1.199-1.643c0.642-0.292,1.416-0.441,2.319-0.441 c0.9,0,1.615,0.262,2.146,0.78c0.666,0.521,0.937,1.198,0.815,2.034H218.366z M249.243,45.181c0.334-1.771,0.508-3.211,0.527-4.321 c0.016-1.111-0.278-2.145-0.879-3.101c-0.604-0.959-1.734-1.721-3.398-2.292c-1.663-0.572-4.026-0.858-7.08-0.858 c-1.807,0-3.514,0.111-5.118,0.339c-1.607,0.223-3.127,0.65-4.561,1.274c-1.439,0.627-2.677,1.537-3.717,2.735 c-1.044,1.196-1.769,2.699-2.177,4.508h9.584c0.178-0.767,0.6-1.415,1.255-1.956c0.655-0.539,1.695-0.808,3.119-0.808 c0.938,0,1.7,0.21,2.279,0.627c0.579,0.414,0.796,1.038,0.638,1.873c-0.144,0.765-0.499,1.313-1.06,1.643 c-0.568,0.331-1.305,0.583-2.201,0.758c-0.61,0.101-1.577,0.24-2.892,0.415c-1.844,0.206-3.442,0.45-4.803,0.728 c-1.354,0.277-2.686,0.722-3.996,1.331c-1.313,0.606-2.442,1.458-3.395,2.553c-0.951,1.094-1.591,2.488-1.906,4.192 c-0.512,2.708,0.001,4.748,1.531,6.119c1.533,1.373,3.687,2.059,6.465,2.059c1.841,0,3.539-0.243,5.088-0.729 c1.547-0.486,2.954-1.318,4.221-2.5h0.104c-0.199,1.04-0.235,1.888-0.117,2.554h10.522c-0.377-0.765-0.551-1.65-0.515-2.656 c0.03-1.01,0.163-2.138,0.4-3.387L249.243,45.181z M237.938,52.685c-0.325,1.354-0.952,2.395-1.892,3.124 c-0.932,0.73-2.008,1.095-3.222,1.095c-0.904,0-1.622-0.251-2.153-0.754c-0.529-0.504-0.73-1.088-0.607-1.746 c0.163-0.869,0.549-1.5,1.164-1.902c0.612-0.397,1.568-0.736,2.872-1.014c1.807-0.384,3.244-0.82,4.305-1.305L237.938,52.685z M251.707,62.322h10.313L269,25.124h-10.32L251.707,62.322z"/>
<path fill="#DE1C3E" d="M48.293,0c2.13,0,3.858,1.723,3.858,3.857c0,2.131-1.728,3.857-3.858,3.857c-0.17,0-0.338-0.014-0.501-0.036 L32.514,46.572c-0.763,2.526-3.104,4.369-5.878,4.369c-3.388,0-6.135-2.751-6.135-6.138c0-0.877,0.184-1.704,0.514-2.46l0.004-0.004 c0.457-0.854,0.83-1.229,1.253-1.847L45.395,6.397c-0.595-0.681-0.958-1.566-0.958-2.54C44.438,1.723,46.164,0,48.293,0 M64.389,31.379h4.837V19.742h2.9v-3.125h-2.9v-0.655c0-0.627,0.142-1.031,0.425-1.211c0.286-0.18,0.738-0.271,1.366-0.271 c0.417,0,0.854,0.031,1.309,0.089v-3.416l-0.769-0.029c-0.7-0.039-1.222-0.056-1.565-0.056c-2.086,0-3.544,0.399-4.367,1.197 c-0.823,0.794-1.236,2.246-1.236,4.352h-2.333v3.125h2.333V31.379z M78.186,21.166c0.228-1.233,1.032-1.847,2.416-1.847 c0.587,0,1.125,0.128,1.608,0.385c0.483,0.252,0.727,0.637,0.727,1.148c0,0.437-0.102,0.752-0.3,0.938 c-0.198,0.192-0.528,0.333-0.981,0.429c-0.399,0.077-1.054,0.18-1.963,0.313c-1.042,0.131-1.912,0.275-2.604,0.423 c-0.692,0.155-1.347,0.391-1.964,0.715c-0.616,0.32-1.113,0.78-1.494,1.379c-0.377,0.596-0.566,1.361-0.566,2.29 c0,1.461,0.467,2.568,1.407,3.326c0.938,0.759,2.147,1.14,3.626,1.14c0.932,0,1.827-0.147,2.69-0.442 c0.862-0.293,1.587-0.752,2.175-1.379c0.075,0.609,0.172,1.075,0.284,1.394h4.866c-0.247-0.512-0.404-1.056-0.471-1.634 c-0.066-0.58-0.099-1.294-0.099-2.148v-6.458c0-1.004-0.183-1.834-0.552-2.489c-0.373-0.655-0.881-1.163-1.523-1.525 c-0.646-0.358-1.366-0.605-2.162-0.736c-0.797-0.133-1.681-0.199-2.648-0.199c-0.907,0-1.762,0.08-2.56,0.24 c-0.794,0.162-1.506,0.422-2.134,0.784c-0.682,0.398-1.227,0.924-1.633,1.579c-0.41,0.654-0.631,1.447-0.668,2.373H78.186z M78.47,28.406c-0.379-0.275-0.569-0.695-0.569-1.264c0-0.534,0.18-0.939,0.54-1.225c0.361-0.285,0.844-0.502,1.45-0.652 c0.229-0.059,0.606-0.144,1.139-0.257c0.437-0.076,0.8-0.151,1.096-0.23c0.296-0.073,0.546-0.178,0.754-0.31 c0,1.593-0.223,2.717-0.669,3.373c-0.444,0.652-1.208,0.98-2.291,0.98C79.332,28.821,78.849,28.681,78.47,28.406 M90.9,31.379h4.837 v-7.31c0-0.986,0.323-1.815,0.967-2.488c0.644-0.674,1.535-1.013,2.675-1.013c0.529,0,1.146,0.098,1.847,0.285v-4.409 c-0.321-0.076-0.701-0.116-1.14-0.116c-1.042,0-1.953,0.25-2.728,0.745c-0.779,0.489-1.345,1.203-1.706,2.132h-0.059v-2.588H90.9 V31.379z M102.848,31.379h4.836v-7.197c0-1.478,0.189-2.518,0.568-3.115c0.379-0.598,1.014-0.895,1.906-0.895 c0.626,0,1.087,0.239,1.379,0.725c0.296,0.482,0.443,1.181,0.443,2.089v8.392h4.835v-7.226c0-1.384,0.143-2.394,0.425-3.03 c0.287-0.634,0.902-0.95,1.849-0.95c0.628,0,1.121,0.223,1.48,0.668c0.361,0.443,0.539,1.067,0.539,1.863v8.675h4.838v-8.818 c0-0.853-0.062-1.637-0.186-2.346c-0.126-0.712-0.362-1.371-0.709-1.977c-0.354-0.608-0.878-1.101-1.579-1.482 c-0.703-0.377-1.614-0.566-2.733-0.566c-1.875,0-3.414,0.795-4.608,2.388c-0.378-0.852-0.939-1.464-1.677-1.834 c-0.741-0.369-1.611-0.554-2.618-0.554c-0.891,0-1.708,0.216-2.447,0.655c-0.739,0.434-1.336,1.031-1.794,1.791h-0.056v-2.018 h-4.693V31.379z M133.514,21.166c0.228-1.233,1.032-1.847,2.417-1.847c0.587,0,1.123,0.128,1.604,0.385 c0.484,0.252,0.727,0.637,0.727,1.148c0,0.437-0.098,0.752-0.296,0.938c-0.204,0.192-0.531,0.333-0.986,0.429 c-0.396,0.077-1.049,0.18-1.96,0.313c-1.044,0.131-1.91,0.275-2.604,0.423c-0.689,0.155-1.341,0.391-1.961,0.715 c-0.614,0.32-1.114,0.78-1.492,1.379c-0.38,0.596-0.568,1.361-0.568,2.29c0,1.461,0.471,2.568,1.409,3.326 c0.936,0.759,2.146,1.14,3.625,1.14c0.93,0,1.827-0.147,2.685-0.442c0.863-0.293,1.587-0.752,2.176-1.379 c0.077,0.609,0.172,1.075,0.285,1.394h4.866c-0.245-0.512-0.406-1.056-0.472-1.634c-0.067-0.58-0.097-1.294-0.097-2.148v-6.458 c0-1.004-0.187-1.834-0.557-2.489c-0.371-0.655-0.877-1.163-1.522-1.525c-0.645-0.358-1.367-0.605-2.161-0.736 c-0.798-0.133-1.68-0.199-2.645-0.199c-0.91,0-1.763,0.08-2.559,0.24c-0.796,0.162-1.508,0.422-2.134,0.784 c-0.682,0.398-1.229,0.924-1.633,1.579c-0.411,0.654-0.634,1.447-0.671,2.373H133.514z M133.798,28.406 c-0.379-0.275-0.568-0.695-0.568-1.264c0-0.534,0.178-0.939,0.54-1.225c0.361-0.285,0.845-0.502,1.452-0.652 c0.225-0.059,0.607-0.144,1.134-0.257c0.435-0.076,0.801-0.151,1.095-0.23c0.295-0.073,0.546-0.178,0.754-0.31 c0,1.593-0.223,2.717-0.668,3.373c-0.444,0.652-1.211,0.98-2.286,0.98C134.661,28.821,134.177,28.681,133.798,28.406 M160.364,22.019c-0.172-1.857-0.939-3.295-2.317-4.308c-1.377-1.015-3.028-1.522-4.962-1.522c-1.18,0-2.238,0.192-3.188,0.582 c-0.947,0.39-1.765,0.944-2.448,1.664c-0.684,0.722-1.201,1.576-1.563,2.559c-0.358,0.991-0.54,2.07-0.54,3.246 c0,1.1,0.194,2.119,0.582,3.06c0.391,0.937,0.934,1.745,1.624,2.417c0.689,0.672,1.511,1.189,2.459,1.55 c0.947,0.359,1.972,0.542,3.075,0.542c2.009,0,3.696-0.557,5.061-1.667c1.367-1.11,2.151-2.634,2.36-4.567h-4.693 c-0.111,0.817-0.396,1.442-0.854,1.879c-0.452,0.439-1.09,0.654-1.903,0.654c-0.949,0-1.665-0.378-2.147-1.135 c-0.485-0.761-0.725-1.672-0.725-2.733c0-0.589,0.041-1.128,0.127-1.619c0.087-0.497,0.235-0.951,0.456-1.368 c0.215-0.417,0.534-0.748,0.951-0.995c0.419-0.247,0.949-0.372,1.593-0.372c0.626,0,1.174,0.206,1.635,0.612 c0.466,0.408,0.706,0.914,0.729,1.521H160.364z M163.094,31.379h4.84V16.617h-4.84V31.379z M175.664,21.166 c0.232-1.233,1.038-1.847,2.418-1.847c0.591,0,1.129,0.128,1.608,0.385c0.485,0.252,0.729,0.637,0.729,1.148 c0,0.437-0.103,0.752-0.3,0.938c-0.198,0.192-0.527,0.333-0.978,0.429c-0.403,0.077-1.06,0.18-1.968,0.313 c-1.04,0.131-1.908,0.275-2.604,0.423c-0.688,0.155-1.343,0.391-1.958,0.715c-0.615,0.32-1.114,0.78-1.499,1.379 c-0.378,0.596-0.566,1.361-0.566,2.29c0,1.461,0.471,2.568,1.41,3.326c0.941,0.759,2.147,1.14,3.628,1.14 c0.926,0,1.822-0.147,2.688-0.442c0.86-0.293,1.588-0.752,2.177-1.379c0.072,0.609,0.168,1.075,0.285,1.394h4.861 c-0.248-0.512-0.402-1.056-0.466-1.634c-0.067-0.58-0.104-1.294-0.104-2.148v-6.458c0-1.004-0.185-1.834-0.552-2.489 c-0.372-0.655-0.88-1.163-1.527-1.525c-0.646-0.358-1.36-0.605-2.161-0.736c-0.795-0.133-1.677-0.199-2.644-0.199 c-0.913,0-1.763,0.08-2.559,0.24c-0.799,0.162-1.508,0.422-2.136,0.784c-0.683,0.398-1.229,0.924-1.633,1.579 c-0.407,0.654-0.634,1.447-0.669,2.373H175.664z M175.955,28.406c-0.382-0.275-0.573-0.695-0.573-1.264 c0-0.534,0.179-0.939,0.542-1.225c0.36-0.285,0.844-0.502,1.447-0.652c0.23-0.059,0.611-0.144,1.143-0.257 c0.438-0.076,0.798-0.151,1.094-0.23c0.296-0.073,0.545-0.178,0.755-0.31c0,1.593-0.226,2.717-0.672,3.373 c-0.444,0.652-1.205,0.98-2.287,0.98C176.816,28.821,176.33,28.681,175.955,28.406 M168.287,12.832c0-1.531-1.239-2.774-2.775-2.774 c-1.527,0-2.772,1.243-2.772,2.774c0,1.533,1.245,2.775,2.772,2.775C167.048,15.607,168.287,14.364,168.287,12.832"/>
</svg>